<?xml version="1.0" standalone="no"?>
<!DOCTYPE svg PUBLIC "-//W3C//DTD SVG 20010904//EN"
 "http://www.w3.org/TR/2001/REC-SVG-20010904/DTD/svg10.dtd">
<svg version="1.0" xmlns="http://www.w3.org/2000/svg"
 width="1224.000000pt" height="792.000000pt" viewBox="0 0 1224.000000 792.000000"
 preserveAspectRatio="xMidYMid meet">
<metadata>
Created by potrace 1.16, written by Peter Selinger 2001-2019
</metadata>
<g transform="translate(0.000000,792.000000) scale(0.100000,-0.100000)"
fill="#ffffff" stroke="none">
<path d="M7195 6950 c-198 -82 -368 -153 -377 -157 -14 -7 21 -99 268 -693
156 -377 286 -692 289 -701 4 -12 -7 -21 -42 -34 -27 -10 -52 -22 -58 -26 -18
-18 -64 -10 -79 14 -12 17 -377 890 -503 1199 -8 20 -21 38 -30 40 -8 2 -37
57 -67 132 -48 116 -58 133 -107 177 -30 26 -63 48 -74 49 -13 0 -29 17 -48
50 -15 27 -32 52 -37 55 -9 6 -77 -21 -195 -75 -33 -15 -109 -49 -170 -76 -60
-26 -112 -49 -113 -50 -2 -1 2 -28 8 -59 10 -48 10 -59 -4 -74 -13 -14 -14
-23 -4 -48 10 -26 9 -35 -6 -58 -20 -30 -47 45 310 -857 74 -185 134 -340 134
-344 0 -3 -14 -19 -31 -35 l-31 -29 77 -186 c43 -104 74 -189 69 -194 -10 -10
-116 -52 -118 -48 -1 2 -100 242 -220 533 -121 293 -228 538 -239 548 -47 42
-63 38 -365 -79 -184 -72 -187 -72 -223 -1 -12 23 -31 54 -42 70 -21 27 -219
197 -231 197 -3 0 -6 -72 -6 -159 0 -132 -3 -165 -17 -189 l-17 -29 244 -589
c134 -324 250 -604 257 -621 13 -31 12 -33 -18 -48 -23 -13 -34 -14 -44 -5
-34 29 -126 210 -195 385 -17 44 -50 122 -72 173 -45 103 -42 101 -150 83 -43
-7 -47 -6 -57 16 -13 28 -22 28 -132 4 -129 -29 -336 -117 -377 -160 -18 -20
-31 -43 -30 -53 2 -11 -23 -43 -65 -82 l-69 -66 136 -329 c75 -181 136 -334
136 -340 0 -6 -8 -11 -18 -11 -14 0 -47 72 -155 333 -76 182 -142 339 -147
347 -8 13 -17 12 -68 -6 l-60 -20 -32 79 c-26 63 -35 77 -49 71 -9 -3 -35 -12
-58 -20 -58 -18 -81 -31 -133 -77 -50 -43 -129 -85 -265 -142 -49 -20 -94 -40
-99 -45 -5 -5 1 -33 15 -64 l23 -56 -23 -24 -23 -25 137 -329 c115 -278 135
-334 126 -351 -14 -25 -36 -38 -75 -42 l-29 -4 -198 480 c-109 264 -206 495
-216 514 -20 38 -95 91 -127 91 -17 0 -541 -211 -551 -222 -2 -2 -7 -37 -12
-78 l-10 -75 203 -490 c111 -269 204 -497 206 -505 2 -9 -4 -15 -15 -15 -14 0
-33 34 -81 150 l-62 150 -41 -2 -42 -2 -34 82 c-19 45 -85 205 -147 355 -64
155 -118 272 -126 272 -7 0 -33 -9 -59 -20 -26 -11 -57 -20 -69 -20 -41 0 -44
7 -172 318 l-79 192 -50 0 -50 0 -45 77 c-25 43 -48 85 -52 95 -5 13 -15 16
-35 13 -25 -5 -35 4 -106 95 -43 55 -83 100 -88 100 -19 0 -21 -32 -11 -132
11 -101 11 -103 -13 -135 -31 -40 -31 -49 1 -120 19 -41 28 -78 29 -125 3 -60
15 -96 115 -337 89 -215 111 -276 105 -299 -5 -24 32 -121 196 -517 111 -267
197 -490 193 -494 -13 -11 -74 -34 -78 -30 -1 2 -64 153 -139 334 -133 323
-136 330 -165 333 -22 2 -33 11 -42 33 -7 17 -18 28 -24 26 -92 -37 -551 -229
-555 -232 -2 -3 1 -22 7 -42 9 -30 9 -40 -3 -53 -8 -9 -15 -22 -15 -29 0 -6
58 -153 130 -326 71 -173 130 -318 130 -321 0 -3 -9 -13 -20 -22 -20 -17 -20
-18 30 -137 27 -66 50 -122 50 -126 0 -3 -24 -16 -52 -29 -29 -13 -55 -25 -57
-27 -7 -5 43 -123 52 -123 16 0 67 31 67 41 0 21 121 186 182 248 75 76 133
117 208 148 108 45 245 24 345 -53 l45 -34 434 180 c239 99 437 180 440 180
12 0 104 -367 94 -375 -2 -2 -44 -23 -94 -48 -97 -48 -197 -82 -214 -72 -5 3
-10 21 -10 38 -1 74 -59 150 -124 163 -145 27 -303 -187 -283 -382 7 -66 28
-98 78 -118 102 -41 236 -5 284 78 26 44 27 45 53 32 79 -40 141 -32 252 35
46 27 87 46 91 42 9 -11 51 -389 51 -466 0 -124 -114 -654 -177 -825 -29 -77
-70 -131 -86 -115 -13 13 -23 89 -48 393 -32 365 -51 522 -67 547 -22 35 -56
52 -133 68 -73 16 -138 12 -167 -9 -14 -11 -15 -22 -6 -92 6 -43 16 -205 23
-359 l12 -280 -28 -85 c-93 -280 -246 -489 -425 -579 -119 -59 -189 -55 -272
18 -84 74 -150 230 -190 446 -21 117 -23 159 -23 420 0 258 3 304 23 417 47
263 120 446 211 531 89 83 92 77 107 -241 15 -310 28 -367 105 -443 53 -54
131 -80 182 -60 32 13 33 16 7 115 -10 42 -33 161 -50 264 -61 371 -70 404
-146 534 -25 43 -86 72 -157 76 -62 4 -75 1 -140 -31 -247 -122 -441 -519
-513 -1047 -25 -184 -23 -478 5 -635 60 -338 186 -531 397 -606 87 -31 233
-31 334 0 177 55 289 120 389 226 66 71 141 177 188 268 l31 58 19 -38 c34
-65 62 -78 166 -78 123 0 193 23 246 80 70 76 135 241 188 479 15 69 31 126
34 126 3 0 9 -37 13 -82 14 -176 47 -246 125 -268 100 -28 255 5 316 66 19 19
53 70 74 112 41 82 106 271 117 343 l7 43 17 -61 c23 -84 57 -125 136 -164 54
-27 77 -32 137 -33 62 0 80 4 119 27 103 60 195 246 247 503 l19 89 6 -55 c12
-102 26 -344 32 -550 l6 -205 -62 -115 c-102 -188 -199 -391 -221 -460 -40
-126 -22 -208 59 -282 69 -63 171 -69 271 -18 107 54 183 222 227 500 11 73
18 195 21 405 l5 300 27 71 c89 223 295 1068 278 1136 -10 38 -50 83 -69 76
-10 -4 -23 -51 -42 -150 -26 -132 -158 -675 -190 -778 -12 -40 -14 -42 -19
-20 -3 14 -11 95 -17 180 -24 327 -89 796 -115 836 -36 56 -230 89 -290 50
-20 -13 -26 -24 -22 -39 46 -194 51 -236 51 -402 0 -132 -5 -198 -22 -293 -56
-307 -137 -537 -215 -610 -24 -23 -26 -23 -35 -5 -16 30 -30 153 -42 368 -6
110 -15 283 -21 384 -5 102 -15 196 -22 210 -20 43 -99 75 -192 79 -68 3 -84
1 -105 -16 l-24 -19 17 -69 c9 -38 21 -132 27 -208 10 -134 9 -145 -20 -311
-69 -394 -146 -666 -203 -713 -11 -10 -17 -9 -26 2 -18 22 -158 1294 -144
1305 4 3 58 39 118 80 152 102 225 136 300 138 33 1 63 2 68 2 11 1 9 49 -4
73 -15 28 -86 58 -140 58 -67 0 -138 -26 -260 -96 l-109 -62 -5 32 c-2 17 -10
67 -16 110 -15 107 -22 122 -66 145 l-38 19 25 10 c14 5 500 207 1080 447 580
241 1060 439 1067 442 6 2 32 57 57 121 105 266 220 414 394 505 218 114 450
82 629 -87 l68 -64 890 369 c490 203 1022 423 1183 490 242 101 292 125 292
141 0 11 -18 88 -39 171 -47 183 -54 237 -41 308 20 104 101 191 209 223 27 8
45 19 45 27 -2 15 -293 720 -301 729 -2 2 -24 -3 -49 -12 -38 -14 -46 -14 -51
-2 -3 8 -9 14 -14 14 -5 0 -185 -73 -400 -162 -321 -133 -390 -165 -386 -179
3 -12 -9 -23 -46 -40 -61 -29 -87 -55 -87 -87 0 -13 79 -215 176 -448 96 -233
173 -428 170 -433 -7 -10 -65 -35 -70 -30 -2 2 -120 283 -261 624 -141 341
-270 653 -287 693 -16 39 -35 72 -41 72 -7 -1 -174 -68 -372 -150z m-2580
-6015 c-19 -140 -47 -233 -79 -268 -29 -31 -39 -33 -56 -12 -15 18 -15 73 0
122 24 76 145 317 148 295 2 -11 -4 -73 -13 -137z"/>
<path d="M9053 6129 c-34 -18 -35 -38 -8 -120 62 -179 116 -458 154 -789 37
-324 37 -299 -9 -569 -46 -267 -104 -516 -140 -599 -27 -62 -54 -82 -69 -53
-6 10 -24 180 -41 377 -33 388 -56 588 -70 614 -14 27 -54 49 -117 65 -68 18
-118 19 -161 4 -40 -14 -45 -30 -27 -92 19 -69 35 -238 36 -384 2 -239 -76
-594 -171 -783 -29 -57 -72 -110 -89 -110 -27 0 -39 134 -61 660 -12 278 -18
320 -53 343 -84 55 -264 62 -284 11 -3 -9 2 -59 12 -111 11 -58 18 -145 19
-222 0 -108 -4 -141 -28 -231 -50 -188 -128 -368 -199 -457 l-34 -42 -1 147
c-1 246 -41 380 -148 493 -196 204 -443 160 -573 -104 -57 -116 -73 -195 -70
-347 1 -69 -4 -164 -10 -213 -7 -49 -11 -146 -9 -220 3 -124 5 -135 33 -186
71 -128 230 -212 377 -198 154 14 269 130 343 348 19 56 34 77 106 150 68 68
94 104 137 186 29 56 61 126 71 155 l18 53 7 -85 c10 -126 29 -180 77 -228 75
-76 222 -105 314 -63 90 41 171 172 229 373 l24 83 11 -41 c25 -92 93 -146
200 -160 85 -11 152 9 197 58 72 80 142 259 198 508 l23 105 12 -85 c21 -142
67 -214 164 -255 52 -21 139 -19 186 5 87 44 178 188 235 369 36 114 82 347
100 511 15 131 15 136 -5 177 -18 38 -52 63 -66 50 -2 -3 -22 -108 -43 -234
-21 -125 -48 -273 -60 -328 -41 -186 -93 -326 -126 -339 -31 -12 -27 -45 -149
1094 -51 479 -70 615 -91 647 -24 39 -116 65 -239 69 -69 3 -118 0 -132 -7z
m-1758 -1861 c36 -28 110 -183 130 -274 11 -44 18 -141 22 -271 l5 -202 -26
-7 c-15 -3 -56 -3 -92 1 -64 7 -65 7 -60 33 16 72 36 233 36 283 0 47 -4 59
-26 80 -24 23 -33 24 -143 24 l-118 0 14 59 c27 117 116 251 188 282 39 17 38
17 70 -8z m58 -905 c31 -3 57 -11 57 -17 -1 -46 -96 -176 -130 -176 -24 0 -40
47 -40 121 0 83 4 93 35 85 11 -4 46 -9 78 -13z"/>
<path d="M11879 4856 c-125 -36 -242 -128 -288 -226 -23 -48 -26 -68 -26 -160
0 -128 21 -196 131 -432 104 -221 113 -280 63 -412 -29 -78 -107 -160 -168
-176 -49 -13 -79 -10 -301 28 -135 23 -182 26 -370 26 -238 0 -334 -14 -504
-74 -46 -17 -91 -30 -100 -30 -8 0 -29 28 -48 63 -30 56 -36 62 -68 65 -19 2
-66 -6 -105 -17 -38 -11 -133 -32 -209 -46 -77 -15 -151 -32 -165 -39 -14 -8
-57 -19 -96 -25 -38 -7 -74 -16 -80 -21 -6 -5 -83 -25 -172 -45 -89 -19 -208
-53 -265 -74 -300 -112 -1509 -507 -2118 -691 -113 -35 -263 -80 -335 -102
-79 -25 -153 -41 -190 -42 -65 -2 -145 -35 -145 -60 0 -8 -16 -24 -36 -35 -20
-12 -41 -34 -47 -50 l-11 -29 -23 51 c-27 57 -37 67 -63 60 -11 -3 -24 4 -33
17 -14 20 -22 21 -114 19 -54 -1 -105 1 -114 5 -10 5 -19 2 -22 -8 -4 -11 -15
-13 -42 -9 -31 5 -41 1 -70 -27 -33 -32 -33 -32 -51 -12 -22 26 -49 15 -58
-24 -6 -24 -8 -25 -25 -10 -34 31 -66 19 -179 -66 -59 -46 -167 -128 -240
-183 -72 -55 -131 -107 -131 -116 -1 -9 -8 -22 -17 -30 -11 -9 -15 -26 -12
-56 2 -30 -1 -43 -10 -43 -9 0 -12 -17 -11 -59 1 -32 -1 -63 -4 -68 -10 -16
22 -169 55 -263 45 -128 92 -206 177 -291 114 -115 218 -159 369 -159 56 0 75
5 117 30 56 33 129 42 119 15 -10 -24 24 -18 52 10 29 29 37 31 55 9 10 -12
25 -15 56 -11 56 6 92 31 100 68 4 21 13 31 32 35 14 3 46 12 71 21 130 46
199 101 306 245 71 95 104 119 214 161 36 14 234 105 440 202 768 363 1670
763 2130 947 195 77 217 89 229 121 6 16 42 36 137 76 279 118 369 152 497
191 163 49 171 56 161 150 l-6 67 108 36 c190 63 296 80 494 81 147 1 204 -4
355 -28 233 -37 324 -39 387 -8 104 51 188 190 196 321 6 102 -13 170 -104
370 -92 203 -118 285 -118 376 -1 125 70 226 202 288 62 30 74 32 172 32 93
-1 112 -4 164 -28 32 -15 60 -27 63 -27 2 0 3 19 1 43 -3 41 -4 42 -63 66 -73
30 -223 38 -296 17z m-5538 -2758 c6 -12 34 -87 61 -167 46 -140 53 -190 28
-206 -11 -7 -70 137 -136 329 -30 87 -54 161 -54 163 0 8 90 -97 101 -119z"/>
<path d="M6107 4819 c-84 -20 -151 -61 -232 -143 -341 -345 -418 -1054 -142
-1301 96 -87 212 -124 450 -146 212 -18 273 -39 304 -104 15 -32 15 -37 -2
-75 -36 -80 -163 -188 -302 -259 -163 -81 -329 -109 -403 -66 -62 37 -97 125
-79 204 17 77 -10 103 -63 61 -71 -55 -97 -242 -49 -348 65 -144 251 -219 473
-192 145 17 240 55 398 158 112 72 199 162 241 248 32 64 34 75 34 169 0 91
-3 106 -31 165 -57 121 -135 171 -331 214 -134 30 -205 62 -270 120 -103 93
-151 216 -160 411 -14 306 94 647 229 720 30 16 40 17 62 7 48 -21 89 -148
108 -326 19 -188 -18 -425 -73 -459 -24 -15 -25 -49 -1 -69 43 -38 160 -50
223 -24 69 29 112 103 140 240 36 176 19 454 -36 574 -74 162 -302 265 -488
221z"/>
<path d="M10333 2870 c-64 -29 -93 -62 -93 -107 0 -43 139 -372 173 -410 52
-58 216 -1 241 84 7 21 -46 167 -62 177 -4 2 -30 -8 -59 -21 l-52 -24 25 -57
c14 -31 28 -63 31 -69 3 -7 -1 -13 -9 -13 -17 0 -171 351 -159 363 5 5 19 -14
34 -47 14 -31 28 -56 30 -56 5 0 100 41 105 45 9 8 -59 135 -76 144 -31 16
-82 13 -129 -9z"/>
<path d="M10053 2744 c-29 -13 -53 -27 -53 -32 0 -13 210 -486 220 -496 7 -7
102 24 118 39 5 5 -220 515 -227 514 -3 0 -30 -11 -58 -25z"/>
<path d="M9835 2648 c-39 -17 -74 -34 -78 -38 -4 -4 5 -60 22 -126 16 -65 29
-120 27 -121 -1 -2 -35 44 -75 102 l-73 104 -37 -15 c-20 -9 -53 -23 -73 -32
-21 -8 -38 -19 -38 -24 0 -12 209 -490 219 -501 10 -10 91 25 91 39 0 7 -23
63 -51 125 -27 63 -46 110 -41 104 5 -5 42 -54 82 -107 40 -54 77 -98 82 -98
7 0 67 27 76 35 1 1 -9 55 -22 121 -14 65 -24 119 -23 120 1 2 22 -43 46 -99
24 -56 47 -106 51 -110 7 -8 110 30 110 39 0 4 -220 507 -224 511 -1 1 -33
-12 -71 -29z"/>
<path d="M9153 2349 c-24 -11 -43 -24 -43 -28 0 -5 12 -35 26 -67 47 -106 47
-113 2 -59 -24 27 -54 62 -68 78 l-25 28 -68 -30 c-58 -26 -67 -33 -59 -48 5
-10 56 -124 112 -253 57 -129 105 -237 107 -239 3 -4 103 39 103 44 0 2 -16
38 -36 81 -20 44 -42 95 -50 114 -18 42 -17 42 85 -82 l72 -86 60 26 c41 19
59 32 56 42 -10 36 -220 500 -226 499 -3 0 -25 -9 -48 -20z"/>
<path d="M8710 2154 c-58 -26 -106 -47 -108 -49 -2 -2 216 -506 222 -513 4 -3
209 88 219 97 8 8 -11 71 -23 71 -4 0 -29 -9 -55 -21 -25 -11 -48 -19 -50 -17
-4 3 -75 159 -75 163 0 2 21 11 46 21 41 16 45 20 39 43 -11 47 -19 48 -97 16
-14 -6 -23 4 -43 46 -14 30 -25 59 -25 65 0 6 22 21 50 32 l50 21 -14 33 c-8
18 -18 33 -23 35 -4 1 -55 -18 -113 -43z"/>
<path d="M8390 2011 c-84 -34 -140 -60 -140 -66 0 -10 212 -490 221 -499 6 -7
100 24 117 39 1 1 -15 43 -37 93 l-39 91 44 26 c56 33 78 66 69 102 -14 57
-88 214 -106 223 -27 15 -79 11 -129 -9z"/>
<path d="M8015 1850 c-57 -28 -85 -64 -85 -108 0 -47 143 -378 177 -409 32
-30 83 -30 149 1 61 28 94 67 94 111 0 37 -142 368 -173 403 -27 29 -105 30
-162 2z"/>
<path d="M7483 1613 c-57 -25 -103 -50 -103 -55 0 -11 209 -490 219 -500 3 -4
42 9 85 28 44 20 95 42 113 49 31 13 32 15 21 42 -19 45 -23 46 -73 24 -26
-12 -49 -21 -52 -21 -4 0 -73 149 -73 160 0 4 19 15 43 25 23 11 43 20 45 20
1 1 -3 16 -9 33 -12 36 -22 38 -74 16 -20 -8 -39 -14 -41 -12 -4 5 -54 117
-54 122 0 2 20 11 45 20 25 10 47 21 50 26 8 12 -16 70 -28 69 -7 0 -58 -21
-114 -46z"/>
<path d="M7180 1480 c-58 -26 -104 -52 -103 -58 3 -12 214 -494 219 -501 8 -9
119 50 116 61 -2 7 -23 58 -48 114 -24 56 -44 106 -44 112 0 5 18 17 40 26 22
9 40 18 40 21 0 10 -30 65 -36 65 -2 0 -22 -9 -43 -20 l-39 -19 -26 60 c-14
33 -24 64 -22 68 3 4 23 16 46 26 22 10 40 22 40 27 0 10 -29 69 -33 67 -1 -1
-49 -22 -107 -49z"/>
<path d="M6813 1319 l-62 -28 70 -273 c39 -150 71 -274 73 -275 4 -5 116 46
116 52 0 3 -9 36 -19 74 -17 61 -17 70 -4 75 26 11 31 7 68 -54 31 -52 40 -60
58 -54 29 9 97 43 97 49 0 2 -68 108 -151 234 -99 151 -157 231 -168 230 -9 0
-44 -14 -78 -30z"/>
<path d="M6500 1181 c-86 -28 -140 -77 -140 -130 0 -37 159 -385 187 -410 22
-19 34 -22 70 -17 85 11 163 70 163 123 0 23 -45 140 -60 156 -8 9 -110 -31
-110 -43 0 -5 11 -32 25 -62 26 -56 31 -78 16 -78 -9 0 -161 338 -161 358 0
27 19 9 39 -38 12 -27 27 -50 34 -50 20 1 97 38 97 48 0 18 -48 118 -62 130
-20 16 -68 23 -98 13z"/>
</g>
</svg>
