<?xml version="1.0" standalone="no"?>
<!DOCTYPE svg PUBLIC "-//W3C//DTD SVG 20010904//EN"
 "http://www.w3.org/TR/2001/REC-SVG-20010904/DTD/svg10.dtd">
<svg version="1.0" xmlns="http://www.w3.org/2000/svg"
 width="2448.000000pt" height="1584.000000pt" viewBox="0 0 2448.000000 1584.000000"
 preserveAspectRatio="xMidYMid meet">
<metadata>
Created by potrace 1.16, written by Peter Selinger 2001-2019
</metadata>
<g transform="translate(0.000000,1584.000000) scale(0.100000,-0.100000)"
fill="#ffffff" stroke="none">
<path d="M12440 14064 c-30 -8 -84 -28 -119 -45 l-65 -30 -40 40 -41 40 -67
-14 c-121 -25 -209 -85 -380 -257 -71 -71 -128 -125 -128 -121 0 4 9 42 20 83
11 41 20 79 20 83 0 10 -68 -2 -100 -18 -34 -18 -59 -47 -109 -130 -23 -38
-57 -94 -76 -123 -39 -62 -50 -112 -40 -181 14 -99 19 -97 145 70 l115 152 3
-116 3 -115 61 -11 c34 -6 64 -7 68 -3 3 5 58 86 123 180 65 95 120 172 123
172 6 0 -3 -38 -33 -138 -28 -90 -27 -144 2 -189 16 -23 21 -25 75 -21 83 6
120 35 233 180 169 218 278 340 322 359 22 10 41 16 43 14 2 -2 -30 -45 -72
-97 -122 -149 -166 -260 -149 -378 l8 -54 95 -47 c52 -26 103 -48 113 -48 11
-1 102 83 229 211 l211 212 201 38 c110 21 211 40 224 43 20 5 10 -19 -78
-195 -111 -222 -116 -241 -76 -325 38 -80 96 -124 229 -171 l78 -27 45 44 c25
24 64 66 86 92 l41 48 -58 127 c-32 70 -59 132 -62 138 -2 7 18 19 48 29 85
29 131 18 385 -90 557 -236 813 -393 1079 -660 146 -147 240 -271 319 -425 89
-173 134 -312 161 -500 14 -102 20 -250 10 -250 -3 0 -130 75 -283 167 -252
151 -603 343 -629 343 -20 0 -116 -94 -129 -127 -14 -33 -19 -130 -8 -169 6
-22 121 -97 424 -275 296 -174 434 -274 595 -431 l91 -87 117 38 c65 21 120
40 122 43 3 2 -11 62 -30 132 -20 70 -32 133 -28 139 3 7 26 37 50 68 24 30
43 63 43 72 0 21 -92 385 -126 497 -80 265 -222 537 -380 731 -72 89 -214 224
-305 291 -267 197 -645 410 -938 529 -160 64 -263 121 -391 212 -161 116 -380
170 -847 212 -93 8 -202 23 -243 34 -91 25 -248 27 -330 5z"/>
<path d="M11178 13552 c-25 -26 -51 -59 -58 -72 -15 -28 -70 -189 -70 -205 0
-9 17 -8 63 4 59 15 64 19 104 79 49 73 62 131 42 193 -8 24 -19 44 -25 46 -6
2 -31 -18 -56 -45z"/>
<path d="M11584 13110 c-45 -4 -86 -10 -91 -13 -5 -3 -18 -61 -28 -127 -21
-135 -19 -143 36 -175 31 -18 49 -19 214 -17 357 6 716 -48 1033 -155 125 -42
464 -183 747 -311 110 -49 232 -101 270 -115 70 -25 313 -83 319 -76 2 2 29
43 60 91 l56 86 -36 80 -36 79 -151 76 c-217 109 -1001 384 -1361 477 -350 92
-721 127 -1032 100z"/>
<path d="M11158 12999 c-21 -5 -87 -33 -148 -64 l-110 -55 0 -94 0 -94 49 -21
c27 -11 56 -21 64 -21 8 0 66 24 130 54 l115 54 26 86 c46 149 46 142 -13 155
-58 12 -62 12 -113 0z"/>
<path d="M11393 12624 c-29 -7 -29 -18 1 -99 44 -121 90 -167 241 -242 50 -26
77 -31 165 -37 252 -17 517 -70 800 -162 80 -25 295 -107 478 -181 415 -167
768 -303 784 -303 7 0 53 37 102 83 l88 82 -43 110 -44 110 -135 53 c-980 384
-1357 500 -1840 563 -149 19 -546 34 -597 23z"/>
<path d="M10986 12569 c-69 -16 -155 -70 -232 -147 -41 -41 -74 -80 -72 -86 2
-6 37 -43 78 -83 l76 -72 119 35 c66 20 127 40 136 45 12 6 19 40 29 152 7 80
9 150 6 156 -8 13 -85 13 -140 0z"/>
<path d="M11198 12093 c-10 -2 -18 -5 -18 -6 0 -1 -9 -69 -20 -151 -11 -82
-19 -150 -18 -151 17 -11 293 -58 388 -65 521 -41 811 -124 1905 -544 137 -53
254 -96 260 -96 18 0 89 41 118 69 52 48 73 116 62 196 -6 37 -15 49 -63 89
-84 68 -198 120 -587 264 -382 142 -636 229 -760 261 -99 25 -553 108 -695
127 -99 13 -529 18 -572 7z"/>
<path d="M10650 11940 l-105 -100 35 -30 c19 -16 62 -43 94 -60 80 -41 172
-42 257 -4 33 15 59 30 59 33 0 4 7 61 15 126 8 66 15 123 15 128 0 4 -60 7
-132 7 l-133 -1 -105 -99z"/>
<path d="M11151 11620 c-46 -5 -86 -12 -90 -15 -3 -4 -6 -46 -6 -93 0 -74 4
-94 27 -137 53 -101 30 -92 348 -136 361 -49 448 -67 705 -144 191 -58 778
-258 1274 -436 l194 -69 41 35 c23 19 67 58 99 87 l58 53 -37 70 c-56 108 -82
142 -133 174 -25 17 -145 64 -266 105 -121 41 -341 117 -488 170 -440 158
-651 219 -955 275 -313 59 -586 80 -771 61z"/>
<path d="M14486 11521 c-31 -61 -56 -116 -56 -123 1 -19 281 -202 494 -323
307 -173 476 -290 627 -432 l66 -62 109 48 109 48 3 80 3 81 -91 91 c-196 197
-392 334 -870 607 l-155 88 -92 4 -92 4 -55 -111z"/>
<path d="M10718 11471 c-171 -55 -220 -283 -86 -396 47 -40 89 -55 153 -55
134 0 227 94 227 229 0 31 -7 73 -15 92 -17 41 -67 93 -110 115 -36 19 -131
27 -169 15z"/>
<path d="M14413 11120 c-38 -23 -50 -43 -84 -140 -14 -41 -29 -82 -32 -90 -9
-21 178 -142 418 -270 333 -178 397 -220 673 -437 l78 -61 112 61 c61 34 112
67 111 72 0 6 -24 62 -53 125 l-54 115 -218 148 c-121 82 -264 176 -319 209
-124 74 -555 288 -581 288 -10 0 -33 -9 -51 -20z"/>
<path d="M11024 11046 c-74 -56 -90 -83 -113 -186 -20 -88 -24 -83 108 -118
82 -22 141 -32 192 -32 185 0 456 -39 699 -101 208 -53 427 -127 721 -244 272
-109 740 -275 773 -275 30 0 137 53 163 81 61 67 58 190 -7 247 -50 43 -145
98 -228 133 -81 34 -903 303 -1107 363 -387 113 -678 165 -1015 180 l-115 6
-71 -54z"/>
<path d="M10384 11021 c-18 -11 -44 -36 -60 -56 l-27 -36 18 -52 c37 -106 54
-137 72 -137 10 0 55 7 100 16 l81 16 7 92 7 92 -30 32 c-51 54 -113 67 -168
33z"/>
<path d="M14226 10603 c-19 -62 -55 -236 -51 -243 9 -15 170 -103 465 -255
309 -159 486 -269 623 -390 l88 -77 77 40 c67 35 79 45 90 79 17 48 10 119
-17 171 -24 48 -163 176 -269 250 -185 128 -522 307 -753 400 -88 36 -115 42
-176 42 -60 0 -73 -3 -77 -17z"/>
<path d="M10322 10545 c-18 -8 -53 -29 -77 -46 -41 -30 -45 -36 -45 -74 0 -69
31 -103 140 -156 109 -53 106 -54 198 27 39 34 46 46 46 77 0 50 -60 174 -88
181 -39 11 -141 5 -174 -9z"/>
<path d="M10804 10553 l-51 -4 -34 -66 c-30 -59 -34 -76 -34 -144 0 -43 3 -80
7 -84 8 -8 305 -50 463 -65 477 -44 727 -110 1480 -393 370 -139 586 -207 656
-207 90 0 151 54 165 145 14 99 -49 189 -179 251 -90 43 -567 201 -872 289
-270 77 -615 164 -915 231 l-215 48 -210 1 c-115 1 -233 0 -261 -2z"/>
<path d="M14068 10047 c-47 -95 -49 -103 -39 -138 6 -21 24 -46 39 -57 56 -39
284 -162 472 -255 269 -132 462 -261 622 -415 l47 -45 105 77 c58 43 106 84
106 93 0 27 -58 137 -96 181 -67 78 -333 267 -558 396 -233 134 -457 233 -568
251 l-79 12 -51 -100z"/>
<path d="M10170 10048 c-69 -22 -126 -41 -127 -42 -3 -2 74 -307 79 -311 1 -1
67 11 144 28 l142 31 11 83 c17 119 0 172 -71 223 -22 17 -44 30 -47 29 -3 -1
-62 -19 -131 -41z"/>
<path d="M10590 10028 c0 -3 -13 -67 -29 -144 -17 -76 -29 -139 -28 -141 13
-12 186 -43 272 -48 348 -19 720 -88 1081 -200 77 -24 260 -90 405 -145 382
-147 736 -269 829 -286 45 -9 83 -14 85 -12 51 54 145 176 145 188 0 33 -52
119 -96 160 -61 56 -97 71 -479 193 -756 242 -1292 382 -1600 417 -97 11 -585
26 -585 18z"/>
<path d="M14008 9597 c-62 -58 -78 -95 -78 -187 0 -43 4 -58 19 -67 73 -46
229 -125 425 -217 250 -118 372 -183 483 -258 51 -34 100 -56 160 -74 48 -14
109 -37 134 -51 44 -24 49 -24 70 -9 31 21 72 83 89 135 l14 42 -70 70 c-144
146 -319 271 -549 390 -149 78 -600 279 -625 279 -8 0 -40 -24 -72 -53z"/>
<path d="M10009 9547 c-43 -16 -102 -52 -118 -71 -10 -11 16 -37 135 -135 80
-67 153 -121 161 -121 34 0 70 54 83 125 7 39 20 87 28 108 17 45 17 45 -68
78 -70 26 -173 34 -221 16z"/>
<path d="M10495 9494 c-33 -14 -61 -27 -63 -29 -2 -1 -7 -47 -12 -101 -5 -55
-11 -115 -14 -135 l-4 -37 56 -11 c30 -6 89 -11 131 -11 257 0 629 -58 966
-150 273 -75 491 -152 1094 -385 306 -118 355 -126 432 -73 58 39 95 94 104
154 6 43 4 49 -36 100 -62 81 -136 130 -249 164 -643 195 -1525 447 -1664 475
-144 29 -370 54 -551 61 -124 5 -133 4 -190 -22z"/>
<path d="M13774 9084 c-32 -64 -39 -87 -39 -138 0 -88 17 -109 133 -164 88
-42 98 -44 126 -33 144 59 303 96 471 109 l100 8 -84 42 c-45 24 -139 66 -207
93 -116 46 -438 159 -454 159 -4 0 -25 -34 -46 -76z"/>
<path d="M9785 8981 c-46 -21 -88 -63 -106 -106 -17 -40 -24 -469 -10 -594 14
-124 50 -201 132 -283 70 -71 79 -68 79 26 0 49 -8 76 -45 156 l-44 98 -2 158
c-1 134 2 165 17 199 l18 40 7 -60 c4 -33 12 -121 18 -195 19 -246 91 -406
270 -593 148 -155 289 -266 428 -335 38 -20 75 -48 95 -73 26 -33 59 -55 153
-100 130 -64 155 -70 155 -39 0 11 3 20 8 20 4 0 82 -32 173 -70 l166 -71 12
-92 c7 -51 15 -102 18 -114 7 -30 121 -86 232 -114 74 -19 104 -21 240 -16
160 5 325 28 373 53 45 23 61 57 54 109 -4 25 -8 45 -9 46 -1 0 -49 8 -107 18
l-105 17 2 33 c0 18 4 35 7 38 3 4 62 -7 131 -22 145 -33 146 -33 231 50 43
42 54 59 63 104 6 30 10 55 9 56 -2 2 -88 58 -191 124 -332 214 -424 279 -577
406 -160 133 -228 214 -272 324 -21 52 -23 71 -23 256 -1 110 -2 210 -3 222
-1 16 -38 50 -122 113 -133 100 -130 100 -221 54 -61 -30 -112 -89 -135 -155
-16 -45 -19 -82 -18 -224 1 -149 4 -182 26 -266 42 -155 107 -272 223 -398 36
-39 65 -73 65 -76 0 -11 -75 27 -141 71 -87 57 -139 118 -190 219 -64 128 -72
188 -73 506 l-1 276 -83 76 -84 77 -84 -77 -84 -78 3 -265 c5 -309 7 -323 99
-508 33 -68 57 -126 53 -130 -12 -12 -123 119 -159 188 -19 36 -42 92 -52 125
-24 81 -24 232 0 370 l19 110 -38 125 c-20 69 -38 126 -39 127 -4 5 -112 -30
-125 -41 -20 -16 -46 -82 -65 -166 -12 -53 -17 -119 -17 -220 0 -186 24 -328
85 -508 21 -62 22 -71 8 -63 -34 18 -94 87 -118 133 -52 102 -59 157 -59 493
0 292 -1 312 -20 343 -11 18 -35 43 -53 54 l-32 20 -55 -113 -54 -114 0 133
c-1 72 -4 132 -8 132 -5 0 -26 -9 -48 -19z m1008 -1283 c186 -159 178 -151
145 -139 -124 46 -232 131 -274 213 -13 27 -22 48 -19 48 4 0 70 -55 148 -122z
m342 -232 c51 -24 121 -63 156 -86 81 -54 251 -191 245 -197 -8 -9 -233 104
-309 156 -76 51 -210 170 -193 171 5 0 50 -20 101 -44z m582 -372 c65 -26 122
-50 126 -54 12 -11 -157 -33 -197 -26 -20 4 -48 17 -62 29 -25 22 -26 24 -11
60 9 20 18 37 21 37 3 0 59 -21 123 -46z"/>
<path d="M14460 8674 c-205 -44 -464 -178 -702 -364 -103 -81 -323 -299 -408
-404 -305 -379 -481 -806 -480 -1169 1 -274 83 -465 284 -662 104 -103 203
-172 431 -304 303 -176 429 -271 474 -359 85 -167 -20 -292 -329 -390 -150
-47 -264 -64 -485 -69 -156 -4 -225 -2 -315 11 -258 38 -461 144 -513 268 -51
122 -18 281 84 410 41 52 51 102 27 126 -7 7 -33 12 -58 12 -96 0 -213 -87
-306 -226 -130 -195 -156 -423 -70 -608 59 -128 193 -273 335 -361 165 -103
391 -183 586 -208 17 -2 -174 -5 -423 -6 l-453 -1 -24 -52 c-13 -29 -64 -143
-113 -253 -100 -221 -124 -289 -147 -407 -26 -140 -16 -394 20 -509 5 -15 -7
-25 -62 -52 l-68 -33 3 -43 c6 -90 66 -159 172 -197 28 -10 50 -23 50 -29 0
-17 -69 -95 -84 -95 -7 0 -64 16 -126 36 -130 41 -126 43 -156 -50 -9 -28 -18
-53 -20 -55 -1 -2 -17 7 -33 18 -48 34 -155 80 -225 96 -102 24 -247 36 -264
23 -7 -7 -31 -47 -53 -90 -21 -42 -47 -81 -56 -86 -10 -5 -51 -17 -91 -27 -40
-9 -75 -21 -78 -27 -3 -5 27 -96 66 -202 69 -183 74 -195 109 -214 48 -27 94
-38 231 -57 122 -17 189 -42 213 -79 23 -34 66 -178 83 -280 37 -208 -18 -790
-63 -669 -16 44 -60 96 -102 121 -37 22 -57 26 -113 26 -74 -1 -98 -13 -98
-50 0 -14 -6 -24 -14 -24 -18 0 -23 37 -31 225 -11 245 -53 495 -105 613 -21
48 -56 59 -64 19 -10 -52 -27 -316 -41 -652 -9 -198 -22 -432 -30 -520 -14
-147 -35 -488 -35 -577 l0 -38 770 0 770 0 -2 1027 -3 1028 -115 41 c-63 22
-209 74 -325 115 -225 79 -265 102 -285 165 -7 20 -10 38 -7 40 3 3 27 -6 54
-19 77 -40 202 -75 412 -117 108 -21 248 -55 311 -75 63 -20 229 -70 369 -110
140 -41 258 -80 262 -87 4 -7 24 -62 43 -123 124 -386 195 -745 291 -1470 24
-187 47 -357 51 -377 l6 -38 105 0 105 0 -6 28 c-2 15 -8 59 -11 97 -12 132
-205 1329 -261 1618 -32 162 -74 292 -126 387 -73 132 -78 145 -94 230 -23
123 -91 381 -104 394 -8 8 -66 -8 -208 -58 -108 -38 -213 -73 -234 -79 -82
-24 -186 38 -378 226 l-142 138 -36 116 -36 115 70 211 c39 116 75 212 82 215
6 2 23 -21 36 -52 18 -40 30 -56 44 -56 13 0 63 50 142 140 l122 140 169 0
c163 0 171 -1 208 -25 139 -87 199 -195 225 -408 7 -63 19 -124 26 -136 14
-27 68 -61 96 -61 32 0 108 126 309 510 65 124 149 277 187 340 38 63 67 124
66 135 -3 19 -12 20 -163 25 l-160 5 115 12 c465 51 803 251 925 550 29 73 55
211 55 297 0 257 -105 424 -410 656 -207 156 -291 246 -369 392 -52 97 -78
186 -91 310 -23 222 34 455 185 763 243 497 685 950 956 981 66 8 137 -18 164
-60 40 -60 24 -269 -35 -481 -127 -452 -448 -965 -605 -965 -41 0 -55 -16 -55
-61 0 -48 49 -121 115 -171 146 -112 304 -136 439 -69 276 136 611 708 702
1196 47 254 -44 516 -250 720 -119 118 -264 197 -418 229 -95 20 -297 20 -388
0z"/>
<path d="M5127 8654 c-229 -41 -499 -181 -773 -399 -128 -103 -395 -369 -516
-515 -528 -640 -874 -1337 -989 -1995 -32 -185 -32 -446 0 -594 55 -257 169
-443 358 -585 209 -157 431 -222 794 -233 261 -8 399 14 614 99 207 82 468
233 630 365 l60 49 -3 -77 c-5 -109 9 -151 74 -219 100 -105 243 -160 481
-185 234 -25 557 245 1013 845 73 96 130 166 126 155 -59 -161 -139 -399 -155
-463 -29 -110 -28 -203 3 -267 58 -126 243 -223 481 -255 98 -12 171 -2 258
37 166 75 433 322 677 628 40 50 73 91 74 92 1 1 -8 -37 -21 -85 -37 -147 -26
-272 35 -386 36 -67 163 -194 234 -235 205 -115 381 -91 633 87 137 97 363
333 518 540 75 100 137 180 137 178 0 -9 -134 -356 -238 -616 -122 -305 -226
-549 -329 -775 l-68 -150 -332 -250 c-376 -284 -511 -394 -633 -515 -169 -167
-210 -243 -210 -389 0 -146 44 -255 138 -343 89 -84 188 -118 337 -118 145 0
252 41 386 148 211 169 436 459 664 857 74 129 311 604 404 811 73 161 73 161
148 225 217 185 852 934 1332 1572 l163 217 5 63 c9 103 -28 188 -74 173 -10
-3 -81 -92 -158 -197 -220 -301 -673 -864 -966 -1198 -74 -85 -142 -163 -151
-175 -10 -11 10 49 43 134 233 602 484 1343 588 1740 43 164 32 200 -103 328
-99 94 -219 155 -316 160 -63 4 -68 3 -88 -23 -12 -15 -22 -40 -22 -54 0 -38
-51 -240 -109 -433 -37 -121 -70 -206 -121 -308 -321 -640 -980 -1403 -1249
-1446 -34 -5 -42 -3 -48 12 -18 47 92 367 282 822 56 136 154 371 218 522 133
319 177 442 177 496 0 60 -35 117 -121 198 -105 99 -221 159 -318 164 -86 5
-98 -8 -117 -120 -24 -134 -77 -292 -197 -578 -53 -127 -76 -168 -190 -330
-546 -778 -965 -1245 -1067 -1190 -36 19 -25 76 76 367 53 153 180 523 284
823 172 500 460 1322 464 1327 4 5 317 54 464 73 269 35 414 23 527 -46 70
-41 108 -44 131 -9 20 31 15 116 -11 165 -47 91 -192 181 -325 201 -87 13
-391 7 -548 -12 -56 -6 -104 -10 -106 -8 -3 2 15 63 39 134 57 167 95 310 95
356 0 143 -377 421 -590 437 -104 7 -107 2 -136 -206 -31 -230 -85 -499 -146
-725 l-21 -79 -266 5 c-231 3 -275 6 -334 24 -37 11 -70 23 -73 25 -3 3 7 41
22 84 23 68 26 91 22 169 -5 108 -25 153 -94 214 -58 51 -122 71 -225 71 -100
0 -178 -28 -291 -103 -252 -167 -408 -456 -333 -612 47 -97 172 -181 315 -211
132 -28 247 0 349 84 l44 36 15 -25 c9 -13 45 -54 81 -90 86 -86 125 -99 280
-99 64 1 170 7 236 14 66 8 122 12 125 10 6 -7 -125 -401 -231 -692 -100 -275
-89 -257 -402 -687 -294 -404 -474 -629 -651 -813 -156 -161 -262 -234 -310
-210 -15 8 -18 18 -14 56 6 56 35 139 278 792 220 592 310 852 317 925 3 30 0
68 -7 89 -27 83 -210 238 -335 285 -63 24 -152 28 -179 8 -11 -8 -23 -41 -32
-82 -29 -139 -473 -1202 -532 -1275 -63 -78 -283 -293 -372 -364 -249 -199
-514 -338 -755 -397 -100 -25 -308 -35 -390 -20 -350 65 -470 477 -319 1093
141 576 478 1289 838 1773 274 369 554 617 765 679 65 19 142 21 159 4 32 -32
2 -151 -89 -350 -153 -338 -191 -426 -232 -546 -114 -326 -101 -535 42 -694
57 -64 117 -98 184 -105 65 -7 87 10 87 67 0 86 51 294 196 798 58 202 119
428 136 502 27 123 30 146 25 260 -8 190 -47 308 -130 391 -103 104 -300 143
-520 103z m3862 -5436 c-40 -75 -153 -260 -221 -360 -146 -216 -278 -345 -374
-362 -52 -10 -78 19 -71 80 11 100 83 191 284 357 130 108 383 307 390 307 2
0 -2 -10 -8 -22z"/>
<path d="M21232 8510 c-32 -13 -39 -38 -57 -200 -48 -431 -230 -1096 -521
-1898 -47 -130 -91 -246 -96 -256 -12 -22 -145 -216 -342 -496 -485 -693 -804
-1038 -884 -958 -30 30 -31 27 278 853 276 739 354 970 355 1056 0 61 -3 71
-39 123 -47 68 -169 169 -251 207 -79 37 -159 53 -201 39 -37 -13 -47 -33 -63
-138 -16 -102 -65 -249 -181 -537 -125 -311 -244 -514 -499 -855 -303 -406
-662 -730 -808 -730 -32 0 -33 2 -33 40 0 86 81 301 325 870 321 748 371 878
360 946 -19 126 -264 325 -420 341 -105 11 -120 -3 -142 -132 -30 -172 -196
-595 -281 -714 -206 -290 -545 -629 -775 -779 -78 -50 -226 -126 -233 -119 -2
2 14 37 37 78 99 173 203 424 249 600 76 291 60 499 -56 739 -51 102 -66 123
-148 205 -133 132 -232 175 -405 175 -322 0 -707 -292 -903 -685 -41 -81 -98
-232 -98 -257 0 -5 -26 -47 -59 -91 -134 -188 -288 -469 -344 -630 -27 -81
-31 -105 -31 -197 0 -127 18 -201 80 -325 78 -157 199 -283 343 -358 80 -42
122 -55 224 -67 153 -18 313 19 457 106 108 65 266 199 352 299 59 68 80 85
108 90 272 48 551 210 837 488 l101 98 -49 -127 c-83 -212 -102 -289 -97 -403
3 -90 7 -105 42 -177 44 -89 147 -201 230 -249 125 -73 259 -94 377 -59 76 22
211 94 294 156 94 71 255 227 362 353 48 57 88 103 89 102 1 -1 -7 -36 -18
-77 -42 -161 -8 -289 106 -403 166 -165 372 -218 537 -140 210 100 505 392
827 821 46 61 86 112 88 112 2 0 -10 -37 -26 -82 -102 -278 -112 -445 -36
-596 81 -161 232 -262 390 -262 374 0 879 487 1415 1362 l103 168 0 68 c1 108
-27 171 -71 157 -11 -3 -68 -76 -127 -163 -415 -608 -729 -1017 -886 -1155
-129 -112 -188 -135 -209 -79 -15 39 -42 -40 664 1982 315 901 427 1248 427
1317 0 66 -62 153 -175 242 -184 147 -404 236 -493 201z m-4757 -1778 c42 -25
62 -66 76 -152 14 -93 6 -332 -16 -449 -19 -100 -100 -352 -156 -488 -41 -98
-198 -412 -224 -446 -13 -18 -17 -18 -95 16 -79 34 -160 80 -209 116 l-24 19
101 146 c121 176 227 342 253 399 37 83 19 148 -62 221 -73 66 -297 166 -370
166 -27 0 -24 10 18 66 118 157 240 265 386 340 140 72 250 88 322 46z m-751
-1661 c69 -52 160 -109 204 -128 l37 -15 -87 -83 c-134 -128 -275 -185 -344
-140 -25 16 -26 21 -21 69 3 29 19 84 37 122 34 75 111 214 118 214 3 0 28
-17 56 -39z"/>
<path d="M12603 7135 c-91 -20 -175 -68 -243 -141 -55 -59 -119 -160 -135
-211 l-6 -23 239 0 240 0 6 98 c4 53 14 139 22 189 8 51 14 95 14 98 0 9 -74
4 -137 -10z"/>
<path d="M13900 4161 c-54 -17 -89 -42 -112 -78 -23 -37 -23 -42 -26 -358 -2
-176 -1 -344 3 -373 13 -103 90 -152 240 -152 90 0 152 21 196 66 l34 35 3
150 3 149 -100 0 -100 0 -3 -127 c-3 -116 -5 -128 -22 -131 -10 -2 -22 2 -27
10 -5 7 -9 157 -9 333 0 176 4 326 9 333 5 8 17 12 27 10 17 -3 19 -15 22
-106 l3 -102 99 0 100 0 0 108 c0 92 -3 114 -22 152 -35 67 -72 84 -193 87
-55 1 -111 -1 -125 -6z"/>
<path d="M16772 4155 c-54 -17 -80 -39 -103 -90 -17 -36 -19 -71 -19 -385 0
-318 2 -348 19 -387 32 -69 80 -88 221 -88 104 0 119 2 159 25 89 50 86 35 89
431 2 222 -1 363 -8 388 -12 47 -64 96 -117 110 -52 15 -189 12 -241 -4z m153
-147 c3 -13 4 -167 3 -343 l-3 -320 -24 -3 c-13 -2 -28 2 -32 10 -10 15 -12
638 -3 662 10 25 53 20 59 -6z"/>
<path d="M21038 4156 c-58 -21 -83 -41 -102 -80 -15 -32 -16 -76 -14 -410 l3
-375 30 -31 c76 -79 305 -82 388 -4 42 38 47 62 47 210 l0 134 -100 0 -99 0
-3 -127 c-3 -124 -4 -128 -25 -131 l-23 -3 0 346 0 346 23 -3 c21 -3 22 -8 25
-105 l3 -103 100 0 101 0 -3 124 c-4 139 -14 162 -80 201 -44 25 -214 33 -271
11z"/>
<path d="M14545 4148 c-2 -7 -36 -213 -75 -458 -39 -245 -74 -455 -77 -467 -5
-23 -4 -23 106 -23 82 0 111 3 112 13 0 6 8 64 17 127 l17 115 41 3 41 3 18
-130 18 -131 110 0 110 0 -6 33 c-3 17 -38 233 -78 480 l-73 447 -138 0 c-102
0 -140 -3 -143 -12z"/>
<path d="M15140 3680 l0 -480 110 0 110 0 0 230 0 230 80 0 80 0 0 60 0 60
-80 0 -80 0 0 125 0 125 90 0 90 0 0 65 0 65 -200 0 -200 0 0 -480z"/>
<path d="M15700 3680 l0 -480 210 0 210 0 0 70 0 70 -100 0 -100 0 0 160 0
160 85 0 85 0 0 60 0 60 -85 0 -85 0 0 125 0 125 95 0 95 0 0 65 0 65 -205 0
-205 0 0 -480z"/>
<path d="M17310 3681 l0 -481 105 0 105 0 0 174 0 173 46 7 c26 3 61 6 78 6
50 1 112 34 133 72 16 29 18 58 18 228 0 290 -3 293 -297 298 l-188 4 0 -481z
m251 329 c17 -10 19 -23 19 -150 0 -127 -2 -140 -19 -150 -39 -21 -41 -15 -41
150 0 165 2 171 41 150z"/>
<path d="M17960 3680 l0 -480 210 0 210 0 0 70 0 70 -100 0 -100 0 0 160 0
160 85 0 85 0 0 60 0 60 -85 0 -85 0 0 125 0 125 95 0 95 0 0 65 0 65 -205 0
-205 0 0 -480z"/>
<path d="M18530 3680 l0 -480 95 0 95 0 2 228 3 227 65 -227 65 -228 113 0
112 0 0 480 0 480 -90 0 -90 0 -1 -197 -1 -198 -56 197 -57 198 -127 0 -128 0
0 -480z"/>
<path d="M19620 3680 l0 -480 90 0 90 0 2 230 3 230 54 -230 54 -230 77 0 77
0 33 158 c17 86 40 193 50 237 l18 80 1 -237 1 -238 100 0 100 0 0 480 0 480
-148 0 -149 0 -31 -182 c-18 -101 -35 -205 -39 -233 -6 -47 -10 -35 -53 180
l-46 230 -142 3 -142 3 0 -481z"/>
<path d="M20530 3680 l0 -480 110 0 110 0 0 480 0 480 -110 0 -110 0 0 -480z"/>
<path d="M11403 4099 c-62 -18 -126 -136 -144 -265 -10 -74 -8 -191 8 -366 5
-61 8 -68 27 -68 12 0 27 5 34 12 9 9 20 4 50 -24 48 -46 66 -55 134 -63 50
-6 57 -5 67 13 6 12 11 51 11 89 0 37 3 112 7 166 7 108 11 113 72 76 65 -39
72 -31 108 131 18 80 33 155 33 168 0 29 -100 94 -189 122 -67 21 -163 25
-218 9z"/>
<path d="M12568 3637 c-129 -73 -188 -146 -188 -230 0 -90 48 -176 145 -260
77 -66 115 -74 155 -32 13 14 34 25 47 25 41 0 89 27 111 61 32 53 74 203 66
236 -21 87 -94 176 -174 212 -62 28 -96 26 -162 -12z m220 -153 c24 -69 11
-150 -40 -246 l-45 -83 -75 -3 -75 -3 -28 37 c-26 34 -27 40 -22 115 6 94 36
166 95 226 l41 42 67 -23 c62 -21 69 -25 82 -62z"/>
</g>
</svg>
